<svg width="25" height="25" fill="none" xmlns="http://www.w3.org/2000/svg"><path d="M16.007 12.274V3.732A3.717 3.717 0 0012.274 0H3.732A3.717 3.717 0 000 3.732v8.542a3.717 3.717 0 003.732 3.733h8.542a3.717 3.717 0 003.733-3.733zm-15.136 0V3.732A2.885 2.885 0 013.774.83h8.542a2.885 2.885 0 012.903 2.903v8.542a2.885 2.885 0 01-2.903 2.903H3.732c-1.576 0-2.903-1.285-2.861-2.902z" fill="#fff"/><path d="M12.026 24.3h8.542a3.717 3.717 0 003.732-3.732v-8.542a3.717 3.717 0 00-3.732-3.733h-1.244v.83h1.244a2.885 2.885 0 012.903 2.903v8.542a2.885 2.885 0 01-2.903 2.903h-8.542a2.885 2.885 0 01-2.903-2.903v-1.244h-.83v1.244c0 2.032 1.66 3.732 3.733 3.732z" fill="#fff"/></svg>